<mxfile host="app.diagrams.net" modified="2022-05-06T01:28:59.652Z" agent="5.0 (Windows NT 10.0; Win64; x64) AppleWebKit/537.36 (KHTML, like Gecko) Chrome/100.0.4896.127 Safari/537.36" etag="4P6z4cbG6oxkwJxgTC4e" version="14.9.8" type="github">
  <diagram id="BqmijlwSYzgdbRCE5Ut3" name="Page-1">
    <mxGraphModel dx="996" dy="616" grid="1" gridSize="10" guides="1" tooltips="1" connect="1" arrows="1" fold="1" page="1" pageScale="1" pageWidth="1654" pageHeight="1169" math="0" shadow="0">
      <root>
        <mxCell id="0" />
        <mxCell id="1" parent="0" />
        <mxCell id="ut-0j-8NUJJQiy_k8EIM-1" value="&lt;font style=&quot;font-size: 16px&quot;&gt;电源模块&lt;/font&gt;" style="rounded=0;whiteSpace=wrap;html=1;" parent="1" vertex="1">
          <mxGeometry x="460" y="300" width="120" height="60" as="geometry" />
        </mxCell>
        <mxCell id="ut-0j-8NUJJQiy_k8EIM-6" value="&lt;font style=&quot;font-size: 16px&quot;&gt;主控模块&lt;/font&gt;" style="rounded=0;whiteSpace=wrap;html=1;allowArrows=1;" parent="1" vertex="1">
          <mxGeometry x="460" y="420" width="120" height="60" as="geometry" />
        </mxCell>
        <mxCell id="EFFhlwVtZ6RXwLO8-rPQ-10" value="跌倒检测模块" style="whiteSpace=wrap;html=1;align=center;verticalAlign=middle;treeFolding=1;treeMoving=1;newEdgeStyle={&quot;edgeStyle&quot;:&quot;elbowEdgeStyle&quot;,&quot;startArrow&quot;:&quot;none&quot;,&quot;endArrow&quot;:&quot;none&quot;};" vertex="1" parent="1">
          <mxGeometry x="600" y="540" width="100" height="60" as="geometry" />
        </mxCell>
        <mxCell id="EFFhlwVtZ6RXwLO8-rPQ-11" value="" style="edgeStyle=elbowEdgeStyle;elbow=vertical;startArrow=none;endArrow=none;rounded=0;" edge="1" target="EFFhlwVtZ6RXwLO8-rPQ-10" parent="1">
          <mxGeometry relative="1" as="geometry">
            <mxPoint x="520" y="510" as="sourcePoint" />
            <Array as="points">
              <mxPoint x="710" y="510" />
            </Array>
          </mxGeometry>
        </mxCell>
        <mxCell id="EFFhlwVtZ6RXwLO8-rPQ-24" value="语音播报模块" style="whiteSpace=wrap;html=1;align=center;verticalAlign=middle;treeFolding=1;treeMoving=1;newEdgeStyle={&quot;edgeStyle&quot;:&quot;elbowEdgeStyle&quot;,&quot;startArrow&quot;:&quot;none&quot;,&quot;endArrow&quot;:&quot;none&quot;};" vertex="1" parent="1">
          <mxGeometry x="470" y="540" width="100" height="60" as="geometry" />
        </mxCell>
        <mxCell id="EFFhlwVtZ6RXwLO8-rPQ-25" value="" style="edgeStyle=elbowEdgeStyle;elbow=vertical;startArrow=none;endArrow=none;rounded=0;exitX=0.5;exitY=1;exitDx=0;exitDy=0;" edge="1" target="EFFhlwVtZ6RXwLO8-rPQ-24" parent="1" source="ut-0j-8NUJJQiy_k8EIM-6">
          <mxGeometry relative="1" as="geometry">
            <mxPoint x="480" y="520" as="sourcePoint" />
          </mxGeometry>
        </mxCell>
        <mxCell id="EFFhlwVtZ6RXwLO8-rPQ-26" value="超声波测距模块" style="whiteSpace=wrap;html=1;align=center;verticalAlign=middle;treeFolding=1;treeMoving=1;newEdgeStyle={&quot;edgeStyle&quot;:&quot;elbowEdgeStyle&quot;,&quot;startArrow&quot;:&quot;none&quot;,&quot;endArrow&quot;:&quot;none&quot;};" vertex="1" parent="1">
          <mxGeometry x="340" y="540" width="100" height="60" as="geometry" />
        </mxCell>
        <mxCell id="EFFhlwVtZ6RXwLO8-rPQ-27" value="" style="edgeStyle=elbowEdgeStyle;elbow=vertical;startArrow=none;endArrow=none;rounded=0;" edge="1" target="EFFhlwVtZ6RXwLO8-rPQ-26" parent="1">
          <mxGeometry relative="1" as="geometry">
            <mxPoint x="520" y="510" as="sourcePoint" />
            <Array as="points">
              <mxPoint x="390" y="510" />
            </Array>
          </mxGeometry>
        </mxCell>
        <mxCell id="EFFhlwVtZ6RXwLO8-rPQ-31" value="" style="endArrow=none;html=1;entryX=0.5;entryY=1;entryDx=0;entryDy=0;exitX=0.5;exitY=0;exitDx=0;exitDy=0;" edge="1" parent="1" source="ut-0j-8NUJJQiy_k8EIM-6" target="ut-0j-8NUJJQiy_k8EIM-1">
          <mxGeometry width="50" height="50" relative="1" as="geometry">
            <mxPoint x="510" y="440" as="sourcePoint" />
            <mxPoint x="560" y="390" as="targetPoint" />
          </mxGeometry>
        </mxCell>
      </root>
    </mxGraphModel>
  </diagram>
</mxfile>
